<?xml version="1.0" encoding="UTF-8"?>
<svg xmlns="http://www.w3.org/2000/svg" xmlns:xlink="http://www.w3.org/1999/xlink" width="32px" height="32px" viewBox="0 0 384 384" version="1.1">
<g id="surface4011925">
<path style=" stroke:none;fill-rule:nonzero;fill:rgb(92.54902%,94.117647%,94.509804%);fill-opacity:1;" d="M 144 32 C 82.332031 32 32 82.332031 32 144 C 32 205.667969 82.332031 256 144 256 C 171.96875 256 197.519531 245.570312 217.1875 228.5 L 224 235.3125 L 224 256 L 320 352 L 352 320 L 256 224 L 235.3125 224 L 228.5 217.1875 C 245.566406 197.519531 256 171.96875 256 144 C 256 82.332031 205.667969 32 144 32 Z M 144 64 C 188.371094 64 224 99.628906 224 144 C 224 188.371094 188.371094 224 144 224 C 99.628906 224 64 188.371094 64 144 C 64 99.628906 99.628906 64 144 64 Z M 144 64 "/>
</g>
</svg>
